nColumns=19
nRows=74
DataType=double
version=3
OpenSimVersion=4.1
endheader
time	ground_force_1_vx	ground_force_1_vy	ground_force_1_vz	ground_force_1_px	ground_force_1_py	ground_force_1_pz	ground_force_1_mx	ground_force_1_my	ground_force_1_mz	ground_force_2_vx	ground_force_2_vy	ground_force_2_vz	ground_force_2_px	ground_force_2_py	ground_force_2_pz	ground_force_2_mx	ground_force_2_my	ground_force_2_mz
2.69	0	0	0	2.60199e-05	0	0.00040293	0	0	0	285.865	1601.06	10.8145	0.496476	0	-0.385404	0	-2.53151	0
2.7	0	0	0	2.60199e-05	0	0.00040293	0	0	0	309.894	1199	-0.0608107	0.453484	0	-0.385803	-0	0.606712	-0
2.71	0	0	0	2.60199e-05	0	0.00040293	0	0	0	273.933	794.309	-7.96877	0.410889	0	-0.388157	-0	3.3308	-0
2.72	0	0	0	2.60199e-05	0	0.00040293	0	0	0	196.912	450.131	-8.52262	0.372869	0	-0.390484	-0	4.97408	-0
2.73	0	0	0	2.60199e-05	0	0.00040293	0	0	0	105.827	212.235	-4.76628	0.362491	0	-0.390035	-0	5.30344	-0
2.74	0	0	0	2.60199e-05	0	0.00040293	0	0	0	38.244	78.7514	-1.6109	0.396208	0	-0.387364	-0	4.5671	-0
2.75	0	0	0	2.60199e-05	0	0.00040293	0	0	0	10.0728	24.2246	-0.497869	0.505003	0	-0.366399	-0	3.29073	-0
2.76	0	0	0	2.60199e-05	0	0.00040293	0	0	0	0	0	0	2.60199e-05	0	0.00040293	0	0	0
2.77	0	0	0	2.60199e-05	0	0.00040293	0	0	0	0	0	0	2.60199e-05	0	0.00040293	0	0	0
2.78	0	0	0	2.60199e-05	0	0.00040293	0	0	0	0	0	0	2.60199e-05	0	0.00040293	0	0	0
2.79	0	0	0	2.60199e-05	0	0.00040293	0	0	0	0	0	0	2.60199e-05	0	0.00040293	0	0	0
2.8	0	0	0	2.60199e-05	0	0.00040293	0	0	0	0	0	0	2.60199e-05	0	0.00040293	0	0	0
2.81	0	0	0	2.60199e-05	0	0.00040293	0	0	0	0	0	0	2.60199e-05	0	0.00040293	0	0	0
2.82	0	0	0	2.60199e-05	0	0.00040293	0	0	0	0	0	0	2.60199e-05	0	0.00040293	0	0	0
2.83	0	0	0	2.60199e-05	0	0.00040293	0	0	0	0	0	0	2.60199e-05	0	0.00040293	0	0	0
2.84	0	0	0	2.60199e-05	0	0.00040293	0	0	0	0	0	0	2.60199e-05	0	0.00040293	0	0	0
2.85	0	0	0	2.60199e-05	0	0.00040293	0	0	0	0	0	0	2.60199e-05	0	0.00040293	0	0	0
2.86	0	0	0	2.60199e-05	0	0.00040293	0	0	0	0	0	0	2.60199e-05	0	0.00040293	0	0	0
2.87	-15.6587	38.3543	-7.7735	0.85682	0	-0.209911	0	-1.4142	0	0	0	0	2.60199e-05	0	0.00040293	0	0	0
2.88	-57.3919	142.147	-19.788	0.911375	0	-0.225381	0	-0.062177	0	0	0	0	2.60199e-05	0	0.00040293	0	0	0
2.89	-142.649	395.75	-39.0181	0.919792	0	-0.231798	-0	1.57169	-0	0	0	0	2.60199e-05	0	0.00040293	0	0	0
2.9	-228.186	795.516	-60.0712	0.900911	0	-0.237839	-0	2.80651	-0	0	0	0	2.60199e-05	0	0.00040293	0	0	0
2.91	-255.397	1245.48	-70.6232	0.863865	0	-0.245198	-0	3.07441	-0	0	0	0	2.60199e-05	0	0.00040293	0	0	0
2.92	-256.477	1653.59	-60.9592	0.822569	0	-0.252076	-0	2.32759	-0	0	0	0	2.60199e-05	0	0.00040293	0	0	0
2.93	-269.575	1945.33	-38.3727	0.786061	0	-0.256367	-0	1.18751	-0	0	0	0	2.60199e-05	0	0.00040293	0	0	0
2.94	-263.922	2121.1	-26.3794	0.750588	0	-0.258274	-0	0.621252	-0	0	0	0	2.60199e-05	0	0.00040293	0	0	0
2.95	-207.473	2226.21	-39.0539	0.711722	0	-0.258592	-0	1.31116	-0	0	0	0	2.60199e-05	0	0.00040293	0	0	0
2.96	-115.889	2271.83	-64.4342	0.670734	0	-0.257261	-0	3.21127	-0	0	0	0	2.60199e-05	0	0.00040293	0	0	0
2.97	-12.6712	2244.78	-83.1786	0.629261	0	-0.254708	-0	5.62509	-0	0	0	0	2.60199e-05	0	0.00040293	0	0	0
2.98	100.467	2139.16	-89.5025	0.586358	0	-0.252351	-0	7.65148	-0	0	0	0	2.60199e-05	0	0.00040293	0	0	0
2.99	208.761	1957.79	-85.6839	0.542817	0	-0.250991	-0	8.62097	-0	0	0	0	2.60199e-05	0	0.00040293	0	0	0
3	290.561	1704.25	-72.6831	0.500776	0	-0.249953	-0	8.31438	-0	0	0	0	2.60199e-05	0	0.00040293	0	0	0
3.01	335.842	1383.65	-54.1406	0.459799	0	-0.248626	-0	6.94967	-0	0	0	0	2.60199e-05	0	0.00040293	0	0	0
3.02	335.662	1016.62	-37.4294	0.415334	0	-0.247184	-0	4.99505	-0	0	0	0	2.60199e-05	0	0.00040293	0	0	0
3.03	285.994	656.666	-25.8633	0.364277	0	-0.245831	-0	2.93533	-0	0	0	0	2.60199e-05	0	0.00040293	0	0	0
3.04	197.045	370.652	-16.0324	0.326042	0	-0.243916	-0	1.14105	-0	0	0	0	2.60199e-05	0	0.00040293	0	0	0
3.05	100.454	183.327	-5.11871	0.350509	0	-0.236868	0	-0.135245	0	0	0	0	2.60199e-05	0	0.00040293	0	0	0
3.06	34.077	76.6669	3.12387	0.460564	0	-0.214906	0	-0.754827	0	0	0	0	2.60199e-05	0	0.00040293	0	0	0
3.07	7.76857	25.1113	4.1953	0.616212	0	-0.177111	0	-0.755812	0	0	0	0	2.60199e-05	0	0.00040293	0	0	0
3.08	0	0	0	2.60199e-05	0	0.00040293	0	0	0	0	0	0	2.60199e-05	0	0.00040293	0	0	0
3.09	0	0	0	2.60199e-05	0	0.00040293	0	0	0	0	0	0	2.60199e-05	0	0.00040293	0	0	0
3.1	0	0	0	2.60199e-05	0	0.00040293	0	0	0	0	0	0	2.60199e-05	0	0.00040293	0	0	0
3.11	0	0	0	2.60199e-05	0	0.00040293	0	0	0	0	0	0	2.60199e-05	0	0.00040293	0	0	0
3.12	0	0	0	2.60199e-05	0	0.00040293	0	0	0	0	0	0	2.60199e-05	0	0.00040293	0	0	0
3.13	0	0	0	2.60199e-05	0	0.00040293	0	0	0	0	0	0	2.60199e-05	0	0.00040293	0	0	0
3.14	0	0	0	2.60199e-05	0	0.00040293	0	0	0	0	0	0	2.60199e-05	0	0.00040293	0	0	0
3.15	0	0	0	2.60199e-05	0	0.00040293	0	0	0	0	0	0	2.60199e-05	0	0.00040293	0	0	0
3.16	0	0	0	2.60199e-05	0	0.00040293	0	0	0	0	0	0	2.60199e-05	0	0.00040293	0	0	0
3.17	0	0	0	2.60199e-05	0	0.00040293	0	0	0	0	0	0	2.60199e-05	0	0.00040293	0	0	0
3.18	0	0	0	2.60199e-05	0	0.00040293	0	0	0	-15.4804	32.516	-1.93109	0.820438	0	-0.423637	-0	7.60208	-0
3.19	0	0	0	2.60199e-05	0	0.00040293	0	0	0	-50.6504	131.466	4.05713	0.852308	0	-0.452057	-0	5.43956	-0
3.2	0	0	0	2.60199e-05	0	0.00040293	0	0	0	-125.537	395.743	27.4475	0.864187	0	-0.446233	-0	1.00626	-0
3.21	0	0	0	2.60199e-05	0	0.00040293	0	0	0	-198.305	837.588	71.6497	0.857615	0	-0.432961	0	-4.69648	0
3.22	0	0	0	2.60199e-05	0	0.00040293	0	0	0	-224.868	1329.18	113.316	0.833776	0	-0.420558	0	-10.0296	0
3.23	0	0	0	2.60199e-05	0	0.00040293	0	0	0	-238.62	1740.56	117.63	0.800121	0	-0.414092	0	-13.6152	0
3.24	0	0	0	2.60199e-05	0	0.00040293	0	0	0	-245.7	2020.59	87.5374	0.764203	0	-0.413349	0	-15.1465	0
3.25	0	0	0	2.60199e-05	0	0.00040293	0	0	0	-224.615	2206.93	66.9521	0.728046	0	-0.413234	0	-15.3422	0
3.26	0	0	0	2.60199e-05	0	0.00040293	0	0	0	-175.718	2335.77	81.0481	0.692436	0	-0.411644	0	-15.092	0
3.27	0	0	0	2.60199e-05	0	0.00040293	0	0	0	-97.4344	2384.35	106.388	0.65489	0	-0.411249	0	-14.6938	0
3.28	0	0	0	2.60199e-05	0	0.00040293	0	0	0	9.1226	2331.55	113.245	0.612356	0	-0.413264	0	-13.8315	0
3.29	0	0	0	2.60199e-05	0	0.00040293	0	0	0	126.292	2188.98	104.291	0.566497	0	-0.415124	0	-12.0279	0
3.3	0	0	0	2.60199e-05	0	0.00040293	0	0	0	228.843	1971.59	94.4285	0.522402	0	-0.414314	0	-9.01117	0
3.31	0	0	0	2.60199e-05	0	0.00040293	0	0	0	300.658	1682.35	81.7516	0.481773	0	-0.411769	0	-4.87817	0
3.32	0	0	0	2.60199e-05	0	0.00040293	0	0	0	326.821	1323.77	58.1625	0.442099	0	-0.410671	0	-0.183991	0
3.33	0	0	0	2.60199e-05	0	0.00040293	0	0	0	302.149	927.704	29.5357	0.399149	0	-0.412614	-0	4.12151	-0
3.34	0	0	0	2.60199e-05	0	0.00040293	0	0	0	235.116	560.651	9.43396	0.350444	0	-0.416359	-0	7.0495	-0
3.35	0	0	0	2.60199e-05	0	0.00040293	0	0	0	143.493	286.948	2.06803	0.314024	0	-0.417602	-0	8.05455	-0
3.36	0	0	0	2.60199e-05	0	0.00040293	0	0	0	58.8302	122.04	1.07742	0.342051	0	-0.411847	-0	7.28034	-0
3.37	0	0	0	2.60199e-05	0	0.00040293	0	0	0	14.0341	41.3567	0.314938	0.450426	0	-0.394971	-0	5.41066	-0
3.38	0	0	0	2.60199e-05	0	0.00040293	0	0	0	2.39005	14.0033	-0.808672	0.614821	0	-0.320622	-0	3.29506	-0
3.39	0	0	0	2.60199e-05	0	0.00040293	0	0	0	0	0	0	2.60199e-05	0	0.00040293	0	0	0
3.4	0	0	0	2.60199e-05	0	0.00040293	0	0	0	0	0	0	2.60199e-05	0	0.00040293	0	0	0
3.41	0	0	0	2.60199e-05	0	0.00040293	0	0	0	0	0	0	2.60199e-05	0	0.00040293	0	0	0
3.42	0	0	0	2.60199e-05	0	0.00040293	0	0	0	0	0	0	2.60199e-05	0	0.00040293	0	0	0
